<svg xmlns="http://www.w3.org/2000/svg" width="32" height="32" viewBox="0 0 32 32">
  <defs>
    <linearGradient id="bg" x1="0" y1="0" x2="1" y2="1">
      <stop offset="0%" stop-color="#0d1b31"/>
      <stop offset="100%" stop-color="#162742"/>
    </linearGradient>
  </defs>
  <rect width="32" height="32" rx="8" fill="url(#bg)"/>
  <g transform="translate(16,17) scale(1.35)">
    <!-- Left eye ring -->
    <circle cx="-5" cy="0" r="4.2" fill="none" stroke="#fff" stroke-width="0.9"/>
    <!-- Right eye ring -->
    <circle cx="5" cy="0" r="4.2" fill="none" stroke="#fff" stroke-width="0.9"/>
    <!-- Left pupil -->
    <circle cx="-5" cy="0" r="1.6" fill="#fff"/>
    <!-- Right pupil -->
    <circle cx="5" cy="0" r="1.6" fill="#fff"/>
    <!-- Forehead / ears -->
    <path d="M-9.5,-7.5 C-8,-6 -6.5,-3.5 -5,-2.5 L-0.5,-5.5 C0,-5.8 0.5,-5.5 0.5,-5.5 L5,-2.5 C6.5,-3.5 8,-6 9.5,-7.5 C8.2,-5.5 7,-3 6.5,-1.5 C5.8,-3 5.2,-3.8 5,-4 C3.5,-2.8 1.5,-2 0,-2 C-1.5,-2 -3.5,-2.8 -5,-4 C-5.2,-3.8 -5.8,-3 -6.5,-1.5 C-7,-3 -8.2,-5.5 -9.5,-7.5Z" fill="#fff" opacity="0.9"/>
  </g>
</svg>
