<svg xmlns="http://www.w3.org/2000/svg" width="160" height="36" viewBox="0 0 160 36" fill="none">
  <defs>
    <linearGradient id="mark-bg" x1="0" y1="0" x2="1" y2="1">
      <stop offset="0%" stop-color="#0d1b31"/>
      <stop offset="100%" stop-color="#162742"/>
    </linearGradient>
  </defs>
  <!-- Icon mark -->
  <rect width="36" height="36" rx="10" fill="url(#mark-bg)"/>
  <g transform="translate(18,19.5) scale(1.5)">
    <circle cx="-5" cy="0" r="4.2" fill="none" stroke="#fff" stroke-width="0.8"/>
    <circle cx="5" cy="0" r="4.2" fill="none" stroke="#fff" stroke-width="0.8"/>
    <circle cx="-5" cy="0" r="1.6" fill="#fff"/>
    <circle cx="5" cy="0" r="1.6" fill="#fff"/>
    <path d="M-9.5,-7.5 C-8,-6 -6.5,-3.5 -5,-2.5 L-0.5,-5.5 C0,-5.8 0.5,-5.5 0.5,-5.5 L5,-2.5 C6.5,-3.5 8,-6 9.5,-7.5 C8.2,-5.5 7,-3 6.5,-1.5 C5.8,-3 5.2,-3.8 5,-4 C3.5,-2.8 1.5,-2 0,-2 C-1.5,-2 -3.5,-2.8 -5,-4 C-5.2,-3.8 -5.8,-3 -6.5,-1.5 C-7,-3 -8.2,-5.5 -9.5,-7.5Z" fill="#fff" opacity="0.9"/>
  </g>
  <!-- Wordmark -->
  <text x="44" y="15" font-family="Sora, Segoe UI, sans-serif" font-size="11" font-weight="800" letter-spacing="0.5" fill="#07111f">M365</text>
  <text x="44" y="29" font-family="Sora, Segoe UI, sans-serif" font-size="11" font-weight="500" letter-spacing="0.3" fill="#29446d">Reporter</text>
</svg>
